<mxfile host="app.diagrams.net" agent="Mozilla/5.0 (Macintosh; Intel Mac OS X 10_15_7) AppleWebKit/537.36 (KHTML, like Gecko) Chrome/126.0.0.0 Safari/537.36" version="24.7.5">
  <diagram name="Page-1" id="6jr_kH9h-fpYMTxGDZVh">
    <mxGraphModel dx="1802" dy="782" grid="1" gridSize="10" guides="1" tooltips="1" connect="1" arrows="1" fold="1" page="1" pageScale="1" pageWidth="850" pageHeight="1100" math="0" shadow="0">
      <root>
        <mxCell id="0" />
        <mxCell id="1" parent="0" />
        <mxCell id="alNUr5hTlfXqEbd69vBy-7" value="AWS VPC&lt;div&gt;&lt;br&gt;&lt;/div&gt;" style="whiteSpace=wrap;html=1;aspect=fixed;" vertex="1" parent="1">
          <mxGeometry x="170" y="110" width="500" height="500" as="geometry" />
        </mxCell>
        <mxCell id="alNUr5hTlfXqEbd69vBy-1" value="AWS S3" style="whiteSpace=wrap;html=1;aspect=fixed;" vertex="1" parent="1">
          <mxGeometry x="230" y="140" width="80" height="80" as="geometry" />
        </mxCell>
        <mxCell id="alNUr5hTlfXqEbd69vBy-2" value="AWS DynamoDB" style="whiteSpace=wrap;html=1;aspect=fixed;" vertex="1" parent="1">
          <mxGeometry x="500" y="140" width="80" height="80" as="geometry" />
        </mxCell>
        <mxCell id="alNUr5hTlfXqEbd69vBy-4" style="edgeStyle=orthogonalEdgeStyle;rounded=0;orthogonalLoop=1;jettySize=auto;html=1;entryX=0.5;entryY=1;entryDx=0;entryDy=0;" edge="1" parent="1" source="alNUr5hTlfXqEbd69vBy-3" target="alNUr5hTlfXqEbd69vBy-1">
          <mxGeometry relative="1" as="geometry" />
        </mxCell>
        <mxCell id="alNUr5hTlfXqEbd69vBy-5" style="edgeStyle=orthogonalEdgeStyle;rounded=0;orthogonalLoop=1;jettySize=auto;html=1;entryX=0.5;entryY=1;entryDx=0;entryDy=0;" edge="1" parent="1" source="alNUr5hTlfXqEbd69vBy-3" target="alNUr5hTlfXqEbd69vBy-2">
          <mxGeometry relative="1" as="geometry" />
        </mxCell>
        <mxCell id="alNUr5hTlfXqEbd69vBy-3" value="AWS Lambda" style="whiteSpace=wrap;html=1;aspect=fixed;" vertex="1" parent="1">
          <mxGeometry x="380" y="310" width="80" height="80" as="geometry" />
        </mxCell>
        <mxCell id="alNUr5hTlfXqEbd69vBy-10" style="edgeStyle=orthogonalEdgeStyle;rounded=0;orthogonalLoop=1;jettySize=auto;html=1;exitX=0.5;exitY=0;exitDx=0;exitDy=0;entryX=0.5;entryY=1;entryDx=0;entryDy=0;" edge="1" parent="1" source="alNUr5hTlfXqEbd69vBy-6" target="alNUr5hTlfXqEbd69vBy-3">
          <mxGeometry relative="1" as="geometry" />
        </mxCell>
        <mxCell id="alNUr5hTlfXqEbd69vBy-6" value="AWS API Gateway" style="whiteSpace=wrap;html=1;aspect=fixed;" vertex="1" parent="1">
          <mxGeometry x="380" y="470" width="80" height="80" as="geometry" />
        </mxCell>
        <mxCell id="alNUr5hTlfXqEbd69vBy-9" style="edgeStyle=orthogonalEdgeStyle;rounded=0;orthogonalLoop=1;jettySize=auto;html=1;entryX=0.5;entryY=1;entryDx=0;entryDy=0;" edge="1" parent="1" source="alNUr5hTlfXqEbd69vBy-8" target="alNUr5hTlfXqEbd69vBy-6">
          <mxGeometry relative="1" as="geometry" />
        </mxCell>
        <mxCell id="alNUr5hTlfXqEbd69vBy-8" value="Mobile UI" style="ellipse;whiteSpace=wrap;html=1;aspect=fixed;" vertex="1" parent="1">
          <mxGeometry x="380" y="680" width="80" height="80" as="geometry" />
        </mxCell>
      </root>
    </mxGraphModel>
  </diagram>
</mxfile>
